# xmcd CD database file
#
# Track frame offsets:
#	150
#	10618
#	22808
#	33710
#	44278
#	55578
#	64428
#	75533
#	86553
#	96273
#	105585
#	115313
#	127185
#	137978
#
# Disc length: 1985 seconds
#
# Revision: 0
# Processed by: cddbd v1.5.2PL0 Copyright (c) Steve Scherf et al.
# Submitted via: CDex 1.70beta2
#
DISCID=b707bf0e
DTITLE=Astrud Gilberto - Great Artist Series
DYEAR=1991
DGENRE=Jazz
TTITLE0=Agua De Beber
TTITLE1=Meditation
TTITLE2=The Gentle Rain
TTITLE3=Fly Me To The Moon
TTITLE4=The Shadow Of Your Smile
TTITLE5=Manha De Carnaval
TTITLE6=Aruanda
TTITLE7=Non-Stop To Brazil
TTITLE8=O Ganso
TTITLE9=Day By Day
TTITLE10=Who Can I Turn To?
TTITLE11=So Nice (Summer Samba)
TTITLE12=Tristeza
TTITLE13=Funny World
EXTD=YEAR: 1991
EXTT0=
EXTT1=
EXTT2=
EXTT3=
EXTT4=
EXTT5=
EXTT6=
EXTT7=
EXTT8=
EXTT9=
EXTT10=
EXTT11=
EXTT12=
EXTT13=
PLAYORDER=
